<?xml version="1.0" encoding="UTF-8" standalone="no"?>
<!DOCTYPE svg PUBLIC "-//W3C//DTD SVG 1.1//EN" "http://www.w3.org/Graphics/SVG/1.1/DTD/svg11.dtd">
<!-- Created with Vectornator (http://vectornator.io/) -->
<svg height="100%" stroke-miterlimit="10" style="fill-rule:nonzero;clip-rule:evenodd;stroke-linecap:round;stroke-linejoin:round;" version="1.1" viewBox="0 0 2388 1668" width="100%" xml:space="preserve" xmlns="http://www.w3.org/2000/svg" xmlns:vectornator="http://vectornator.io" xmlns:xlink="http://www.w3.org/1999/xlink">
<defs>
<linearGradient gradientTransform="matrix(1 0 0 1 552 88)" gradientUnits="userSpaceOnUse" id="LinearGradient" x1="367.482" x2="1250.98" y1="724.011" y2="724.011">
<stop offset="0" stop-color="#ffffff"/>
<stop offset="0.202479" stop-color="#2e0670"/>
</linearGradient>
<linearGradient gradientTransform="matrix(1 0 0 1 552 88)" gradientUnits="userSpaceOnUse" id="LinearGradient_2" x1="512.314" x2="761.654" y1="894.296" y2="894.296">
<stop offset="0" stop-color="#ffffff"/>
<stop offset="0.774793" stop-color="#2e0670"/>
</linearGradient>
<clipPath id="TextBounds">
<rect height="1" transform="matrix(1 0 0 1 -57.7273 506)" width="25" x="0" y="0"/>
</clipPath>
<clipPath id="TextBounds_2">
<rect height="403.75" transform="matrix(1 0 0 1 1230.17 516.625)" width="487.651" x="0" y="0"/>
</clipPath>
<linearGradient gradientTransform="matrix(1 0 0 1 552 88)" gradientUnits="userSpaceOnUse" id="LinearGradient_3" x1="678.175" x2="1165.83" y1="630.5" y2="630.5">
<stop offset="0" stop-color="#ffffff"/>
<stop offset="0.654959" stop-color="#2e0670"/>
</linearGradient>
</defs>
<g id="Layer-1" vectornator:layerName="Layer 1">
<path d="M1189.73 818C1190.01 850.278 975.678 383.044 971.464 405.296C938.074 581.588 829.572 1121.78 1081.46 1038.52C2662.27 516 1146.3 1125.87 1188.73 1168C1241.88 1220.78 1274.93 1229.18 1293.58 1210.33C1327.98 1175.55 1313.38 1048.02 1285.65 935.26C1248.67 784.885 1188.34 660.786 1189.73 818Z" fill="url(#LinearGradient)" fill-rule="nonzero" opacity="1" stroke="#000000" stroke-linecap="butt" stroke-linejoin="round" stroke-opacity="0.20317" stroke-width="22.4357"/>
</g>
<g id="Layer-1-copy" vectornator:layerName="Layer 1 copy">
<path d="M1189.73 818C1192.73 1157 906.727 888 1188.73 1168C1470.73 1448 1186.73 479 1189.73 818Z" fill="url(#LinearGradient_2)" fill-rule="nonzero" opacity="1" stroke="#000000" stroke-linecap="butt" stroke-linejoin="round" stroke-opacity="0.247516" stroke-width="22.4357"/>
<g fill="#f5891d" opacity="1" stroke="none">
<path clip-path="url(#TextBounds)" d="M-50.1921 528.852L-48.0827 528.852L-48.0827 513.84L-42.7273 513.84L-42.7273 511.941L-55.5476 511.941L-55.5476 513.84L-50.1921 513.84L-50.1921 528.852Z"/>
<path clip-path="url(#TextBounds)" d="M-49.7585 557.727C-49.0788 557.727-48.4519 557.633-47.8777 557.445C-47.3034 557.258-46.7937 557-46.3484 556.672C-45.9031 556.344-45.5398 555.963-45.2585 555.529C-44.9773 555.096-44.782 554.637-44.6726 554.152L-44.6491 554.035L-46.6648 554.035L-46.6999 554.141C-46.8171 554.477-47.0124 554.779-47.2859 555.049C-47.5593 555.318-47.9011 555.531-48.3113 555.688C-48.7214 555.844-49.1882 555.922-49.7116 555.922C-50.4538 555.922-51.0964 555.758-51.6394 555.43C-52.1824 555.102-52.6003 554.631-52.8933 554.018C-53.1863 553.404-53.3327 552.664-53.3327 551.797L-53.3327 551C-53.3327 550.086-53.1843 549.316-52.8874 548.691C-52.5906 548.066-52.1824 547.594-51.6628 547.273C-51.1433 546.953-50.5554 546.793-49.8991 546.793C-49.2429 546.793-48.6628 546.945-48.1589 547.25C-47.655 547.555-47.2605 548.018-46.9753 548.639C-46.6902 549.26-46.5476 550.047-46.5476 551L-46.5476 551.797L-45.5163 550.32L-54.3757 550.32L-54.3757 551.914L-44.4968 551.914L-44.4968 551.152C-44.4968 549.926-44.7136 548.85-45.1472 547.924C-45.5808 546.998-46.1999 546.277-47.0046 545.762C-47.8093 545.246-48.7702 544.988-49.8874 544.988C-51.0046 544.988-51.9753 545.258-52.7995 545.797C-53.6238 546.336-54.2644 547.086-54.7214 548.047C-55.1784 549.008-55.407 550.125-55.407 551.398L-55.407 551.41C-55.407 552.691-55.1804 553.805-54.7273 554.75C-54.2741 555.695-53.6257 556.428-52.782 556.947C-51.9382 557.467-50.9304 557.727-49.7585 557.727Z"/>
<path clip-path="url(#TextBounds)" d="M-55.7585 586.133L-53.4968 586.133L-50.5437 581.469L-50.4734 581.469L-47.532 586.133L-45.2468 586.133L-49.3601 579.922L-45.2116 573.863L-47.4851 573.863L-50.4031 578.457L-50.4734 578.457L-53.4148 573.863L-55.7116 573.863L-51.5749 580.004L-55.7585 586.133Z"/>
<path clip-path="url(#TextBounds)" d="M-39.1882 586.344C-38.9851 586.344-38.7839 586.334-38.5847 586.314C-38.3855 586.295-38.2156 586.273-38.0749 586.25L-38.0749 584.586C-38.1843 584.594-38.2976 584.604-38.4148 584.615C-38.532 584.627-38.657 584.633-38.7898 584.633C-39.3523 584.633-39.7741 584.51-40.0554 584.264C-40.3366 584.018-40.4773 583.559-40.4773 582.887L-40.4773 575.551L-38.0749 575.551L-38.0749 573.863L-40.4773 573.863L-40.4773 570.57L-42.5866 570.57L-42.5866 573.863L-44.4148 573.863L-44.4148 575.551L-42.5866 575.551L-42.5866 582.992C-42.5866 584.164-42.3074 585.016-41.7488 585.547C-41.1902 586.078-40.3366 586.344-39.1882 586.344Z"/>
</g>
<path clip-path="url(#TextBounds_2)" d="M1494.85 718.989L1433.71 659.994C1420.2 647.03 1407.01 637.362 1394.16 630.99C1381.3 624.618 1367.52 621.432 1352.8 621.432C1334.56 621.432 1318.57 625.47 1304.84 633.545C1291.11 641.619 1280.4 652.935 1272.71 667.492C1265.02 682.048 1261.17 699.214 1261.17 718.989C1261.17 738.654 1265.02 755.792 1272.71 770.404C1280.4 785.015 1291.11 796.331 1304.84 804.351C1318.57 812.37 1334.56 816.38 1352.8 816.38C1367.52 816.38 1381.3 813.194 1394.16 806.822C1407.01 800.451 1420.2 790.838 1433.71 777.984L1494.85 718.989ZM1453.15 718.989L1412.62 756.726C1402.07 766.613 1392.04 774.056 1382.54 779.055C1373.04 784.054 1363.12 786.553 1352.8 786.553C1340.6 786.553 1329.86 783.779 1320.58 778.231C1311.3 772.683 1304.05 764.856 1298.83 754.748C1293.61 744.641 1291 732.721 1291 718.989C1291 705.256 1293.61 693.309 1298.83 683.147C1304.05 672.985 1311.3 665.129 1320.58 659.582C1329.86 654.034 1340.6 651.26 1352.8 651.26C1363.12 651.26 1373.07 653.786 1382.62 658.84C1392.18 663.894 1402.18 671.309 1412.62 681.087L1453.15 718.989ZM1453.15 718.989L1514.29 777.984C1527.8 790.838 1541.02 800.451 1553.92 806.822C1566.83 813.194 1580.59 816.38 1595.2 816.38C1613.44 816.38 1629.43 812.37 1643.16 804.351C1656.89 796.331 1667.6 785.015 1675.29 770.404C1682.98 755.792 1686.83 738.654 1686.83 718.989C1686.83 699.214 1682.98 682.048 1675.29 667.492C1667.6 652.935 1656.89 641.619 1643.16 633.545C1629.43 625.47 1613.44 621.432 1595.2 621.432C1580.59 621.432 1566.83 624.618 1553.92 630.99C1541.02 637.362 1527.8 647.03 1514.29 659.994L1453.15 718.989ZM1494.85 718.989L1535.38 681.087C1545.82 671.309 1555.82 663.894 1565.38 658.84C1574.93 653.786 1584.88 651.26 1595.2 651.26C1607.51 651.26 1618.3 654.034 1627.59 659.582C1636.87 665.129 1644.09 672.985 1649.26 683.147C1654.42 693.309 1657 705.256 1657 718.989C1657 732.721 1654.42 744.641 1649.26 754.748C1644.09 764.856 1636.87 772.683 1627.59 778.231C1618.3 783.779 1607.51 786.553 1595.2 786.553C1584.88 786.553 1574.96 784.054 1565.46 779.055C1555.96 774.056 1545.93 766.613 1535.38 756.726L1494.85 718.989Z" fill="url(#LinearGradient_3)" opacity="1" stroke="none"/>
</g>
</svg>
